<svg width="278" height="65" viewBox="0 0 278 65" fill="none" xmlns="http://www.w3.org/2000/svg">
<path d="M232.198 0C232.246 3.14831 232.247 6.29663 232.248 9.53303C232.183 9.30015 232.063 8.97947 232.062 8.65816C232.047 5.83249 232.053 3.00671 232.053 0.0904771C232.053 5.75352e-09 232.15 0 232.198 0Z" fill="#A3898A"/>
<path d="M76.5885 53.8196C74.0868 55.6476 71.4511 57.0086 68.439 57.5782C66.2271 57.9964 64.0124 58.1055 61.7955 57.7311C59.7798 57.3907 57.7751 56.9812 55.7742 56.5614C55.2942 56.4607 54.8481 56.1988 54.276 55.9661C54.276 59.0079 54.276 61.9746 54.276 65C50.7595 65 47.3406 65 43.8237 65C43.8237 64.6244 43.8237 64.2799 43.8237 63.9355C43.8237 59.1119 43.8326 54.2883 43.8145 49.4647C43.8116 48.7012 44.0046 48.1063 44.4761 47.4576C46.4242 44.7779 48.2702 42.0239 50.1542 39.2975C50.422 38.9101 50.6926 38.5246 50.9995 38.0842C51.4145 39.1869 51.7386 40.2743 52.22 41.2869C54.0695 45.1778 57.2294 47.2389 61.4423 47.8958C65.5026 48.5289 68.895 47.2685 71.6959 44.3947C73.3855 42.6611 74.3744 40.5099 74.71 38.0905C74.7919 37.5 74.9793 37.2998 75.5824 37.6347C77.075 38.4638 78.5829 39.2692 80.1208 40.0088C80.338 40.1132 80.8347 39.8794 81.07 39.6604C82.0346 38.7628 82.9462 37.8085 83.8817 36.8796C84.0961 36.6667 84.3282 36.4717 84.7093 36.1259C84.8527 38.2845 84.5622 40.1797 84.0898 42.0406C83.0373 46.1866 81.004 49.7799 77.8731 52.7232C77.4805 53.0922 77.0516 53.4226 76.5885 53.8196Z" fill="#2EA2DB"/>
<path d="M225.399 0C225.49 19.1369 225.49 38.2739 225.49 57.4707C221.484 57.4707 217.55 57.4707 213.541 57.4707C213.541 49.1469 213.541 40.8588 213.541 32.5023C205.994 32.5023 198.52 32.5023 190.972 32.5023C190.972 40.7987 190.972 49.0868 190.972 57.4527C187.029 57.4527 183.158 57.4527 179.156 57.4527C179.156 38.3741 179.156 19.2775 179.156 0.0904771C183.021 5.75352e-09 186.887 5.75352e-09 190.842 0.0904771C190.933 7.62628 190.933 15.0716 190.933 22.522C198.522 22.522 205.991 22.522 213.52 22.522C213.52 14.9711 213.52 7.48557 213.52 0C217.45 0 221.379 0 225.399 0Z" fill="#2FA2DB"/>
<path d="M278.001 9.56232C272.378 9.6528 266.755 9.6528 261.028 9.6528C261.028 25.6248 261.028 41.5263 261.028 57.4791C257.078 57.4791 253.23 57.4791 249.279 57.4791C249.279 41.5865 249.279 25.685 249.279 9.64696C243.594 9.64696 238.011 9.64697 232.338 9.54595C232.247 6.29663 232.247 3.14831 232.247 0C247.475 0 262.703 0 278.001 0C278.001 3.15694 278.001 6.31439 278.001 9.56232Z" fill="#2FA2DB"/>
<path d="M0 34.0682C0.381575 32.5028 0.708226 31.0109 1.15662 29.5565C1.98703 26.863 3.44157 24.5349 5.27618 22.3854C7.06258 20.2925 9.20559 18.7091 11.61 17.479C13.8691 16.3232 16.3068 15.7212 18.8439 15.4234C23.2959 14.9007 27.492 15.6115 31.4231 17.7584C34.2991 19.3292 36.7364 21.4175 38.611 24.1295C39.8327 25.8969 39.8822 25.931 38.6332 27.6961C36.7925 30.2977 34.8739 32.8442 32.8398 35.6168C32.7257 34.958 32.674 34.4961 32.5639 34.0486C31.4395 29.4828 27.6102 26.0625 23.0087 25.2659C19.3381 24.6306 16.2082 25.6621 13.5528 28.0977C11.7281 29.7714 10.4901 31.9271 10.0991 34.392C9.91047 35.5805 9.22369 36.2507 8.48338 36.9727C7.54567 37.8871 6.538 38.7318 5.62859 39.6724C5.16059 40.1565 4.79627 40.1913 4.22985 39.8715C2.8821 39.1104 1.49937 38.4113 0.0653844 37.6665C2.01373e-07 36.4835 1.93056e-07 35.3211 0 34.0682Z" fill="#2EA2DB"/>
<path d="M110.795 14.6722C115.049 14.9061 118.777 16.1972 121.981 18.9635C125.558 22.0523 127.345 26.0421 128.203 30.5749C128.76 33.5205 128.963 36.4823 128.971 39.5684C119.662 39.5684 110.447 39.5684 101.206 39.5684C101.38 41.946 101.749 44.1513 103.076 46.1063C105.316 49.4038 108.993 50.6253 112.84 49.4068C114.951 48.7379 116.047 47.0369 116.798 45.0725C116.898 44.8105 116.98 44.5417 117.128 44.1086C120.832 44.7441 124.556 45.3832 128.356 46.035C127.806 47.9839 126.876 49.7605 125.711 51.3933C122.941 55.2729 119.104 57.6239 114.442 58.2366C109.267 58.9165 104.09 58.8273 99.3008 56.201C96.5259 54.6795 94.3519 52.5489 92.7865 49.822C91.145 46.9626 90.157 43.8745 89.9733 40.5702C89.8507 38.3665 89.6592 36.1448 89.8083 33.9523C90.1106 29.5073 91.3254 25.2898 94.0888 21.7149C97.0054 17.9418 100.82 15.4961 105.628 14.886C107.301 14.6738 109.009 14.7356 110.795 14.6722ZM117.761 31.9912C117.633 31.2781 117.532 30.5586 117.371 29.853C116.276 25.0611 112.401 22.6283 108.084 23.4282C103.302 24.3141 101.372 28.6032 101.433 32.7258C101.49 32.7518 101.547 32.8004 101.603 32.8005C106.812 32.8091 112.02 32.8077 117.229 32.8283C117.761 32.8304 117.794 32.5543 117.761 31.9912Z" fill="#2FA2DB"/>
<path d="M161.974 41.7C161.974 38.9011 162.044 36.1961 161.95 33.497C161.885 31.6652 161.657 29.8311 161.379 28.0168C161.017 25.648 158.378 23.2956 155.581 23.3143C152.945 23.3318 150.721 24.077 148.884 25.9379C147.342 27.5006 146.732 29.4876 146.538 31.6047C145.777 39.9013 146.29 48.2201 146.144 56.5278C146.139 56.8146 146.144 57.1016 146.144 57.4592C142.419 57.4592 138.742 57.4592 135.005 57.4592C135.005 43.5488 135.005 29.6403 135.005 15.6846C138.44 15.6846 141.837 15.6846 145.31 15.6846C145.31 17.54 145.31 19.3914 145.31 21.1509C146.948 19.786 148.504 18.3067 150.242 17.0851C152.535 15.4732 155.157 14.7262 157.989 14.6562C160.786 14.587 163.493 14.8335 166.084 16.0074C168.87 17.2696 170.901 19.2123 172.016 22.0903C172.878 24.3138 173.136 26.6491 173.15 28.9866C173.203 38.091 173.171 47.1959 173.171 56.3007C173.171 56.6782 173.171 57.0558 173.171 57.4813C169.425 57.4813 165.77 57.4813 161.974 57.4813C161.974 52.254 161.974 47.0253 161.974 41.7Z" fill="#2FA2DB"/>
<path d="M21.4291 48.2769C24.6789 48.1568 27.3755 46.9386 29.6662 44.7933C33.3272 41.3647 36.0314 37.1851 38.8225 33.0752C41.6739 28.8765 44.5809 24.7181 48.371 21.2859C51.952 18.0432 56.0703 15.9738 60.9476 15.4278C65.0319 14.9706 68.9097 15.6028 72.5767 17.3442C76.5551 19.2336 79.6921 22.0993 81.8732 25.9755C83.15 28.2448 84.0478 30.6321 84.3614 33.2218C84.3931 33.4836 84.3296 33.8493 84.1622 34.0281C82.8884 35.389 81.5777 36.7154 80.2552 38.0765C78.468 37.1452 76.7773 36.276 75.104 35.3745C74.9295 35.2805 74.7823 35.0072 74.7497 34.7973C74.0034 29.9953 70.0815 26.0402 65.3177 25.2576C61.5373 24.6365 58.3023 25.6983 55.4285 28.1896C52.3579 30.8516 50.0871 34.1516 47.7649 37.4235C45.2103 41.0229 42.7845 44.7289 40.0177 48.1586C36.7171 52.25 32.7553 55.6047 27.5469 57.1113C21.4427 58.877 15.6402 58.1666 10.1889 54.8679C4.62366 51.5002 1.46876 46.4858 0.232281 40.1786C0.214803 40.0894 0.249701 39.99 0.271103 39.7963C1.97578 40.699 3.6397 41.5802 5.43045 42.5285C6.84246 41.0641 8.2665 39.5872 9.76977 38.0282C11.1719 44.3429 14.9883 47.7643 21.4291 48.2769Z" fill="#EE552B"/>
<path d="M232.053 28.7654C232.053 24.3633 232.053 20.0578 232.053 15.6951C235.86 15.6951 239.603 15.6951 243.395 15.6951C243.395 29.6067 243.395 43.4942 243.395 57.4562C239.672 57.4562 235.928 57.4562 232.053 57.4562C232.053 47.9431 232.053 38.4025 232.053 28.7654Z" fill="#F05429"/>
</svg>
